DBRep_DrawableShape

CASCADE Topology V3, (c) Open Cascade
Locations 4
1
              1               0               0               0 
              0               1               0               0 
              0               0               1               7 
2  1 -1 0
1
              1               0               0             2.5 
              0               1               0             2.5 
              0               0               1               0 
2  3 -1 0
Curve2ds 15
1 -2.5 -2.7132459894498213 1 0 
1 1.5220255084494589 0 0 -1 
1 -2.5 2.2867540105501787 0 -1 
1 0 0 0 -1 
1 2.5 -2.7132459894498213 0 1 
1 0 0 1 0 
1 0 -7 1 0 
2 0 -0.33824598944982265 0.68965517241379293 0.72413793103448298 -0.72413793103448298 0.68965517241379293 3.6250000000000009
1 0 0 1 0 
2 0 0 1 0 -0 1 1
2 0 -0.21324598944982132 1 0 -0 1 1
2 0 -0.21324598944982132 1 0 -0 1 1
1 0 7 1 0 
1 6.2831853071795862 -0 0 1 
1 0 -0 0 1 
Curves 11
1 0 0 0 0 0 1 
1 5 0 0 0 0 1 
1 0 0 0 1 0 0 
1 0 5 0 0 0 1 
1 0 5 0 0 -1 0 
1 5 5 0 0 0 1 
1 5 0 0 0 1 0 
2 2.5 2.3749999999999987 0 0 0 1 0.68965517241379293 0.72413793103448298 -0 -0.72413793103448298 0.68965517241379293 0 3.6250000000000013
2 0 0 0 0 0 1 1 0 -0 -0 1 0 1
2 2.5 2.5 7 0 0 1 1 0 -0 -0 1 0 1
1 1 -2.4492935982947064e-16 0 0 0 1 
Polygon3D 0
PolygonOnTriangulations 0
Surfaces 7
1 0 0 0 0 1 0 1 0 0 0 0 -1 
1 2.5 2.7132459894498213 0 0 0 1 1 0 -0 -0 1 0 
1 0 5 0 1 0 -0 0 -1 0 0 -0 -1 
2 2.5 2.3749999999999987 0 -0 -0 -1 0.68965517241379293 0.72413793103448298 -0 -0.72413793103448298 0.68965517241379293 0 3.6250000000000013
1 5 0 0 -1 0 0 0 1 0 0 0 -1 
2 0 0 0 0 0 1 1 0 -0 -0 1 0 1
1 0 0 0 0 0 1 1 0 -0 -0 1 0 
Triangulations 0

TShapes 36
Ve
1e-07
0 0 0
0 0

0101101
*
Ed
 1e-07 1 1 0
1  1 0 0 7
0

0101000
+36 0 -36 1 *
Ve
1e-07
5 0 0
0 0

0101101
*
Ed
 1e-07 1 1 0
1  2 0 0 7
0

0101000
+34 0 -34 1 *
Ed
 1e-07 1 1 0
1  3 0 0 5
2  1 2 0 0 5
0

0101000
+36 0 -34 0 *
Wi

0101100
+35 0 -33 0 -32 0 +32 1 *
Fa
0  1e-07 1 0

0101000
+31 0 *
Ve
1e-07
0 5 0
0 0

0101101
*
Ed
 1e-07 1 1 0
1  4 0 0 7
2  2 4 0 0 7
0

0101000
+29 0 -29 1 *
Ed
 1e-07 1 1 0
1  5 0 0 5
2  3 2 0 0 5
0

0101000
+29 0 -36 0 *
Wi

0101100
+28 0 -35 0 -27 0 +27 1 *
Fa
0  1e-07 3 0

0101000
+26 0 *
Ve
1e-07
5 5 0
0 0

0101101
*
Ed
 1e-07 1 1 0
1  6 0 0 7
2  4 4 0 0 7
0

0101000
+24 0 -24 1 *
Ed
 1e-07 1 1 0
1  7 0 0 5
2  5 2 0 0 5
0

0101000
+34 0 -24 0 *
Wi

0101100
+33 0 -23 0 -22 0 +22 1 *
Fa
0  1e-07 5 0

0101000
+21 0 *
Ed
 1e-07 1 1 0
1  8 0 0 1.52202550844946
2  6 4 0 0 1.52202550844946
2  7 4 2 0 1.52202550844946
2  8 2 0 0 1.52202550844946
0

0101000
+24 0 -29 0 *
Wi

0101100
+32 0 +27 0 +22 0 +19 0 *
Ve
1e-07
1 -2.44929359829471e-16 0
0 0

0101101
*
Ed
 1e-07 1 1 0
1  9 0 0 6.28318530717959
2  9 6 0 0 6.28318530717959
2  10 7 0 0 6.28318530717959
2  11 2 4 0 6.28318530717959
0

0101000
+17 0 -17 0 *
Wi

0101100
-16 3 *
Fa
0  1e-07 2 0

0101000
+18 0 +15 0 *
Wi

0101100
+32 1 +27 1 +22 1 +19 1 *
Ve
1.00000000444089e-07
3.5 2.5 7
0 0

0101101
*
Ed
 1e-07 1 1 0
1  10 0 0 6.28318530717959
2  12 2 1 0 6.28318530717959
2  13 6 3 0 6.28318530717959
0

0101000
+12 0 -12 0 *
Wi

0101100
-11 0 *
Fa
0  1e-07 2 1

0101000
+13 0 +10 0 *
Wi

0101100
+23 0 -28 0 -19 0 +19 1 *
Fa
0  1e-07 4 0

0101000
+8 0 *
Ed
 1e-07 1 1 0
1  11 0 0 7
3  14 15CN 6 0 0 7
0

0101000
+17 0 -12 4 *
Wi

0101100
-11 0 +6 3 +16 3 -6 3 *
Fa
0  1e-07 6 3

0101000
+5 0 *
Sh

0101100
-30 0 -25 0 -20 0 -14 0 +9 0 -7 0 -4 0 *
So

0100000
+3 0 *
Co

1100000
+2 0 *

+1 0 